<svg width="33" height="33" viewBox="0 0 33 33" fill="none" xmlns="http://www.w3.org/2000/svg">
<path d="M28.5374 16.58C28.5374 16.8452 28.4321 17.0996 28.2445 17.2871C28.057 17.4747 27.8026 17.58 27.5374 17.58H16.5374C16.2722 17.58 16.0179 17.4747 15.8303 17.2871C15.6428 17.0996 15.5374 16.8452 15.5374 16.58C15.5374 16.3148 15.6428 16.0605 15.8303 15.8729C16.0179 15.6854 16.2722 15.58 16.5374 15.58H27.5374C27.8026 15.58 28.057 15.6854 28.2445 15.8729C28.4321 16.0605 28.5374 16.3148 28.5374 16.58ZM16.5374 9.58002H27.5374C27.8026 9.58002 28.057 9.47467 28.2445 9.28713C28.4321 9.09959 28.5374 8.84524 28.5374 8.58002C28.5374 8.31481 28.4321 8.06045 28.2445 7.87292C28.057 7.68538 27.8026 7.58002 27.5374 7.58002H16.5374C16.2722 7.58002 16.0179 7.68538 15.8303 7.87292C15.6428 8.06045 15.5374 8.31481 15.5374 8.58002C15.5374 8.84524 15.6428 9.09959 15.8303 9.28713C16.0179 9.47467 16.2722 9.58002 16.5374 9.58002ZM27.5374 23.58H16.5374C16.2722 23.58 16.0179 23.6854 15.8303 23.8729C15.6428 24.0605 15.5374 24.3148 15.5374 24.58C15.5374 24.8452 15.6428 25.0996 15.8303 25.2871C16.0179 25.4747 16.2722 25.58 16.5374 25.58H27.5374C27.8026 25.58 28.057 25.4747 28.2445 25.2871C28.4321 25.0996 28.5374 24.8452 28.5374 24.58C28.5374 24.3148 28.4321 24.0605 28.2445 23.8729C28.057 23.6854 27.8026 23.58 27.5374 23.58ZM10.8299 5.87252L7.53742 9.16627L6.24492 7.87252C6.05728 7.68488 5.80279 7.57947 5.53742 7.57947C5.27206 7.57947 5.01756 7.68488 4.82992 7.87252C4.64228 8.06016 4.53687 8.31466 4.53687 8.58002C4.53687 8.84539 4.64228 9.09988 4.82992 9.28752L6.82992 11.2875C6.92279 11.3805 7.03308 11.4543 7.15448 11.5046C7.27588 11.5549 7.40601 11.5808 7.53742 11.5808C7.66884 11.5808 7.79896 11.5549 7.92036 11.5046C8.04176 11.4543 8.15205 11.3805 8.24492 11.2875L12.2449 7.28752C12.4326 7.09988 12.538 6.84539 12.538 6.58002C12.538 6.31466 12.4326 6.06016 12.2449 5.87252C12.0573 5.68488 11.8028 5.57947 11.5374 5.57947C11.2721 5.57947 11.0176 5.68488 10.8299 5.87252ZM10.8299 13.8725L7.53742 17.1663L6.24492 15.8725C6.05728 15.6849 5.80279 15.5795 5.53742 15.5795C5.27206 15.5795 5.01756 15.6849 4.82992 15.8725C4.64228 16.0602 4.53687 16.3147 4.53687 16.58C4.53687 16.7114 4.56275 16.8415 4.61303 16.9629C4.66331 17.0843 4.73701 17.1946 4.82992 17.2875L6.82992 19.2875C6.92279 19.3805 7.03308 19.4543 7.15448 19.5046C7.27588 19.5549 7.40601 19.5808 7.53742 19.5808C7.66884 19.5808 7.79896 19.5549 7.92036 19.5046C8.04176 19.4543 8.15205 19.3805 8.24492 19.2875L12.2449 15.2875C12.4326 15.0999 12.538 14.8454 12.538 14.58C12.538 14.3147 12.4326 14.0602 12.2449 13.8725C12.0573 13.6849 11.8028 13.5795 11.5374 13.5795C11.2721 13.5795 11.0176 13.6849 10.8299 13.8725ZM10.8299 21.8725L7.53742 25.1663L6.24492 23.8725C6.15201 23.7796 6.04171 23.7059 5.92032 23.6556C5.79892 23.6053 5.66882 23.5795 5.53742 23.5795C5.40603 23.5795 5.27592 23.6053 5.15452 23.6556C5.03313 23.7059 4.92283 23.7796 4.82992 23.8725C4.73701 23.9654 4.66331 24.0757 4.61303 24.1971C4.56275 24.3185 4.53687 24.4486 4.53687 24.58C4.53687 24.7114 4.56275 24.8415 4.61303 24.9629C4.66331 25.0843 4.73701 25.1946 4.82992 25.2875L6.82992 27.2875C6.92279 27.3805 7.03308 27.4543 7.15448 27.5046C7.27588 27.5549 7.40601 27.5808 7.53742 27.5808C7.66884 27.5808 7.79896 27.5549 7.92036 27.5046C8.04176 27.4543 8.15205 27.3805 8.24492 27.2875L12.2449 23.2875C12.4326 23.0999 12.538 22.8454 12.538 22.58C12.538 22.3147 12.4326 22.0602 12.2449 21.8725C12.0573 21.6849 11.8028 21.5795 11.5374 21.5795C11.2721 21.5795 11.0176 21.6849 10.8299 21.8725Z" fill="black"/>
</svg>
